<svg xmlns="http://www.w3.org/2000/svg" xmlns:xlink="http://www.w3.org/1999/xlink" version="1.1" id="Layer_1" x="0px" y="0px" viewBox="0 0 52.9 52.9" enable-background="new 0 0 52.9 52.9" xml:space="preserve"><style>.style0{fill:	#E9A93E;}.style1{stop-color:	#E8A83A;}.style2{stop-color:	#CD852A;}.style3{fill:	url(#SVGID_1_);}.style4{fill:	#CB832A;}.style5{fill:	#3B2314;}</style><g><circle cx="26.4" cy="26.4" r="26.4" class="style0"/><linearGradient id="SVGID_1_" gradientUnits="userSpaceOnUse" x1="14.8" y1="12.7" x2="31.6" y2="32.1"><stop offset="0" class="style1"/><stop offset="1" class="style2"/></linearGradient><circle cx="26.7" cy="26.4" r="23.9" class="style3"/><g><path d="M4 27C4 14 14.5 3.5 27.3 3.5c10.5 0 19.3 6.9 22.3 16.4c-2.8-10-12-17.4-22.9-17.4 C13.6 2.5 3 13.2 3 26.4c0 10.9 7.3 20.2 17.4 23C10.9 46.3 4 37.4 4 27z" class="style4"/></g><g><g><polygon points="42.5,28.7 37.8,24 33.1,28.7" class="style5"/></g><g><path d="M26.7 41.6c-2 0-3.9-0.4-5.7-1.1c-1.8-0.7-3.3-1.7-4.6-3c-1.3-1.3-2.3-2.8-3.1-4.6 c-0.8-1.8-1.1-3.7-1.1-5.8V27c0-2 0.4-3.9 1.1-5.7c0.8-1.8 1.8-3.3 3.1-4.7c1.3-1.3 2.9-2.4 4.7-3.1c1.8-0.8 3.8-1.1 5.9-1.1 c1.4 0 2.8 0.1 3.9 0.4c1.2 0.3 2.3 0.7 3.2 1.2c1 0.5 1.9 1.1 2.7 1.9c0.8 0.7 1 0.8 1.6 1.7l-5.3 5.3c-0.8-1-1.7-1.8-2.7-2.4 c-1-0.6-2.1-0.9-3.5-0.9c-1 0-1.9 0.2-2.7 0.6c-0.8 0.4-1.5 0.9-2.1 1.6c-0.6 0.7-1.1 1.5-1.4 2.4c-0.3 0.9-0.5 1.9-0.5 2.9V27 c0 1 0.2 2 0.5 3c0.3 0.9 0.8 1.7 1.4 2.4c0.6 0.7 1.3 1.2 2.1 1.6c0.8 0.4 1.7 0.6 2.7 0.6c0.7 0 1.4-0.1 2-0.2 c0.6-0.2 1.2-0.4 1.6-0.7c0.5-0.3 1-0.7 1.4-1.1c0.4-0.4 0.7-0.7 1.1-1.2l5.4 5c-0.7 0.8-0.7 0.8-1.5 1.6c-0.8 0.8-1.7 1.4-2.7 2 c-1 0.6-2.1 1-3.4 1.3C29.7 41.5 28.3 41.6 26.7 41.6z" class="style5"/></g></g><g display="none"><polygon display="inline" points="40.4,22.8 35.3,27.8 36.1,27.8 40.8,23.2"/><path display="inline" d="M16.3 35.8c-1.2-1.2-2.1-2.5-2.8-4.1c-0.7-1.6-1-3.3-1-5.2v-0.1c0-1.8 0.3-3.5 1-5.1 c0.7-1.6 1.6-3 2.8-4.2c1.2-1.2 2.6-2.1 4.2-2.8c1.5-0.6 3.1-1 4.9-1c-0.1 0-0.2 0-0.4 0c-1.9 0-3.7 0.3-5.3 1 c-1.6 0.7-3 1.6-4.2 2.8c-1.2 1.2-2.1 2.6-2.8 4.2c-0.7 1.6-1 3.3-1 5.1v0.1c0 1.9 0.3 3.6 1 5.2c0.7 1.6 1.6 3 2.8 4.1 c1.2 1.2 2.5 2.1 4.1 2.7c1.6 0.7 3.3 1 5.1 1c0.1 0 0.2 0 0.4 0c-1.6 0-3.2-0.4-4.7-1C18.9 37.9 17.5 37 16.3 35.8z"/></g></g></svg>